#!OML:ASF C:\ViconDB\ViconDB\414\Spring2016\041811\Spring2016.ASF
:FULLY-SPECIFIED
:DEGREES
244
root 10.2444 17.7434 -21.5867 -180.651 -4.40829 -180.536
lowerback 1.44401 -1.72034 -2.82248
upperback -0.0864784 -2.33665 0.878854
thorax -0.748261 -1.15623 2.52798
lowerneck -8.49919 -5.1153 -8.88372
upperneck 21.4846 -7.40765 14.8345
head 8.99281 -2.19869 5.94286
rclavicle 4.77394e-015 -1.39149e-015
rhumerus -52.3867 -23.3329 -75.9277
rradius 35.4945
rwrist 40.6011
rhand -32.9212 -15.438
rfingers 7.12502
rthumb -6.13817 -45.329
lclavicle 4.77394e-015 -1.39149e-015
lhumerus -34.0741 -7.70629 90.3905
lradius 33.2032
lwrist -29.778
lhand -30.7484 15.6791
lfingers 7.12502
lthumb -4.04023 45.6206
rfemur 192.258 48.7357 -147.329
rtibia 27.521
rfoot -55.6217 -51.1983
rtoes 6.99722e-014
lfemur 14.7998 -3.56746 -21.1558
ltibia 19.2256
lfoot -18.6533 -5.40375
ltoes 1.09729e-013
245
root 10.2682 17.7572 -21.8045 -180.677 -4.3484 -180.369
lowerback 1.26675 -1.6514 -2.54586
upperback -0.116467 -2.23592 0.980276
thorax -0.69263 -1.1077 2.47021
lowerneck -8.46734 -5.15405 -8.99853
upperneck 21.5144 -7.44256 14.826
head 9.00605 -2.22446 5.95795
rclavicle -3.11921e-014 -7.95139e-016
rhumerus -52.4144 -23.4561 -75.6556
rradius 35.384
rwrist 41.097
rhand -32.4772 -15.6141
rfingers 7.12502
rthumb -5.70949 -45.5171
lclavicle -3.11921e-014 -7.95139e-016
lhumerus -34.5167 -6.83187 90.3954
lradius 32.1583
lwrist -30.6858
lhand -30.3797 15.8959
lfingers 7.12502
lthumb -3.68418 45.8438
rfemur 190.53 48.4032 -148.158
rtibia 28.1445
rfoot -56.0845 -51.1576
rtoes -4.29375e-014
lfemur 14.4354 -3.31741 -20.6088
ltibia 20.993
lfoot -17.5237 -6.00532
ltoes 1.65389e-013
246
root 10.2927 17.7758 -22.0271 -180.594 -4.16406 -179.76
lowerback 0.976958 -1.61455 -1.86708
upperback -0.23359 -2.17478 1.22785
thorax -0.669564 -1.08041 2.33593
lowerneck -8.48888 -5.16627 -9.22457
upperneck 21.7427 -7.43269 14.8674
head 9.09815 -2.21976 6.0255
rclavicle -1.49523e-014 2.54444e-014
rhumerus -52.4141 -23.4048 -75.5359
rradius 35.087
rwrist 41.1017
rhand -32.8203 -15.5325
rfingers 7.12502
rthumb -6.0407 -45.4264
lclavicle -1.49523e-014 2.54444e-014
lhumerus -35.1093 -5.66187 90.2513
lradius 31.0383
lwrist -31.7357
lhand -29.9208 15.9219
lfingers 7.12502
lthumb -3.24099 45.877
rfemur 189.123 48.6003 -148.006
rtibia 28.8413
rfoot -56.8029 -51.4373
rtoes 7.87187e-014
lfemur 13.7544 -2.78645 -19.4547
ltibia 23.0461
lfoot -16.0715 -6.85741
ltoes 2.13097e-013
247
root 10.3171 17.795 -22.2462 -180.539 -3.89464 -179.544
lowerback -0.121359 -1.53084 -1.63044
upperback 0.329536 -2.05235 1.34632
thorax 0.512065 -1.04015 2.2796
lowerneck -9.07687 -5.17234 -9.18425
upperneck 21.514 -7.45006 14.7739
head 9.12934 -2.24912 5.96235
rclavicle 7.90247e-015 -1.05356e-014
rhumerus -51.1795 -23.4335 -76.182
rradius 34.636
rwrist 40.063
rhand -33.47 -15.105
rfingers 7.12502
rthumb -6.66799 -44.9801
lclavicle 7.90247e-015 -1.05356e-014
lhumerus -34.6476 -4.76047 90.0533
lradius 29.865
lwrist -32.4003
lhand -29.6875 16.1195
lfingers 7.12502
lthumb -3.01563 46.0779
rfemur 187.504 48.4763 -148.478
rtibia 29.6155
rfoot -56.6375 -51.6643
rtoes -7.15625e-014
lfemur 12.9591 -2.22311 -18.7443
ltibia 25.3254
lfoot -14.2776 -7.65774
ltoes -5.40694e-014
248
root 10.3345 17.814 -22.4694 -180.557 -3.51471 -179.324
lowerback -0.562211 -1.46401 -1.35122
upperback 0.437328 -1.9666 1.48771
thorax 0.860628 -1.00267 2.25455
lowerneck -9.24153 -5.08282 -9.0399
upperneck 21.6344 -7.29375 14.4269
head 9.1605 -2.19678 5.83023
rclavicle -1.72096e-014 4.96962e-015
rhumerus -50.6845 -23.2496 -76.3422
rradius 34.2726
rwrist 39.7988
rhand -34.0367 -15.1056
rfingers 7.12502
rthumb -7.21497 -44.9626
lclavicle -1.72096e-014 4.96962e-015
lhumerus -35.0733 -3.54337 89.8522
lradius 28.7859
lwrist -32.6339
lhand -29.529 15.4588
lfingers 7.12502
lthumb -2.86259 45.4193
rfemur 185.938 48.8474 -148.789
rtibia 30.3335
rfoot -56.6363 -51.9992
rtoes 4.37326e-014
lfemur 12.0329 -1.43535 -17.9807
ltibia 27.9354
lfoot -12.1494 -8.47155
ltoes 5.40694e-014
249
root 10.3738 17.8332 -22.6644 -180.719 -3.30468 -179.498
lowerback -0.199041 -1.41445 -1.67805
upperback 0.349734 -1.90097 1.53458
thorax 0.576418 -0.967708 2.49852
lowerneck -9.27774 -5.04962 -8.9923
upperneck 21.8173 -7.21368 14.1825
head 9.20798 -2.17232 5.7492
rclavicle -1.83198e-014 8.34896e-015
rhumerus -50.5973 -23.1366 -76.288
rradius 34.107
rwrist 40.4571
rhand -34.0788 -15.1502
rfingers 7.12502
rthumb -7.25567 -45.0058
lclavicle -1.83198e-014 8.34896e-015
lhumerus -35.7502 -2.23098 89.4939
lradius 27.7709
lwrist -33.6062
lhand -29.3026 15.2385
lfingers 7.12502
lthumb -2.64394 45.2019
rfemur 183.702 47.5637 -150.444
rtibia 31.0415
rfoot -54.715 -52.2191
rtoes 8.90555e-014
lfemur 10.9714 -0.643877 -17.4945
ltibia 30.7006
lfoot -9.64225 -9.20792
ltoes 3.18055e-014
250
root 10.3993 17.8523 -22.8349 -181.072 -2.95674 -179.211
lowerback 0.659317 -1.21583 -1.22319
upperback 0.248468 -1.64672 1.61491
thorax -0.0331671 -0.83415 2.35034
lowerneck -9.29365 -5.10813 -9.15741
upperneck 21.931 -7.26986 14.191
head 9.26516 -2.20435 5.78025
rclavicle 1.57312e-014 -1.59028e-014
rhumerus -50.5185 -23.3834 -76.0957
rradius 33.8795
rwrist 41.1959
rhand -33.6174 -14.9212
rfingers 7.12502
rthumb -6.81019 -44.7917
lclavicle 1.57312e-014 -1.59028e-014
lhumerus -36.5354 -2.01772 89.566
lradius 27.0231
lwrist -33.5631
lhand -28.876 15.5289
lfingers 7.12502
lthumb -2.232 45.4969
rfemur 181.678 46.856 -151.316
rtibia 31.6133
rfoot -53.9677 -52.2352
rtoes 6.44062e-014
lfemur 9.77797 0.296052 -16.4939
ltibia 33.6722
lfoot -6.6357 -9.78222
ltoes -2.57625e-013
251
root 10.4243 17.8706 -23.0251 -181.126 -2.69718 -179.165
lowerback 0.820966 -1.10691 -1.06428
upperback 0.208938 -1.50183 1.63181
thorax -0.175098 -0.760465 2.28201
lowerneck -9.36456 -5.11979 -9.26529
upperneck 22.0138 -7.2771 14.2423
head 9.31501 -2.20498 5.82074
rclavicle -2.67443e-014 -2.3059e-014
rhumerus -50.0897 -23.0634 -76.5293
rradius 33.6496
rwrist 40.5855
rhand -34.1758 -14.9988
rfingers 7.12502
rthumb -7.34927 -44.8512
lclavicle -2.67443e-014 -2.3059e-014
lhumerus -37.1159 -1.09067 89.2571
lradius 26.1552
lwrist -34.1478
lhand -28.5421 15.6394
lfingers 7.12502
lthumb -1.9095 45.6106
rfemur 180.463 47.3622 -151.65
rtibia 32.0774
rfoot -54.4326 -52.0829
rtoes 1.46306e-013
lfemur 8.17622 1.11953 -15.8347
ltibia 36.7863
lfoot -3.69307 -10.0434
ltoes 6.83819e-013
252
root 10.4539 17.8931 -23.2239 -181.212 -2.58433 -178.952
lowerback 0.832624 -1.05207 -0.827749
upperback 0.250611 -1.43119 1.71829
thorax -0.145908 -0.727516 2.23714
lowerneck -9.4749 -5.12614 -9.27213
upperneck 22.037 -7.25928 14.0673
head 9.33507 -2.21751 5.75864
rclavicle -9.05402e-016 2.0276e-014
rhumerus -49.6573 -23.0653 -76.565
rradius 33.4178
rwrist 41.6841
rhand -33.6703 -15.015
rfingers 7.12502
rthumb -6.86133 -44.8838
lclavicle -9.05402e-016 2.0276e-014
lhumerus -37.6306 -0.361142 89.0998
lradius 25.4678
lwrist -33.8089
lhand -27.9314 15.7457
lfingers 7.12502
lthumb -1.31961 45.7213
rfemur 179.459 48.6239 -151.608
rtibia 32.3634
rfoot -56.1238 -51.5386
rtoes -7.95139e-014
lfemur 6.50641 1.82067 -14.9758
ltibia 40.0224
lfoot -0.779761 -10.2593
ltoes -3.08514e-013
253
root 10.4746 17.9132 -23.4203 -181.14 -2.50032 -178.14
lowerback 0.707434 -1.00574 0.146995
upperback 0.199225 -1.37518 1.93444
thorax -0.148383 -0.70486 1.90951
lowerneck -9.49857 -5.09536 -9.26153
upperneck 22.0637 -7.19815 13.9543
head 9.33546 -2.20013 5.72311
rclavicle -1.58018e-014 1.74931e-014
rhumerus -49.1911 -22.649 -77.032
rradius 33.2127
rwrist 41.3743
rhand -33.9562 -15.0756
rfingers 7.12502
rthumb -7.13729 -44.9352
lclavicle -1.58018e-014 1.74931e-014
lhumerus -38.2121 0.411975 88.7679
lradius 24.5254
lwrist -34.6682
lhand -27.6153 15.4711
lfingers 7.12502
lthumb -1.01434 45.4484
rfemur 179.054 51.0732 -150.303
rtibia 32.6158
rfoot -59.0576 -51.1425
rtoes 1.59028e-014
lfemur 4.63387 2.39123 -13.4983
ltibia 43.2744
lfoot 2.08377 -10.0642
ltoes 2.16278e-013
254
root 10.496 17.9369 -23.6111 -181.102 -2.46483 -177.361
lowerback 0.589881 -0.988397 0.945429
upperback 0.238702 -1.3675 2.18773
thorax -0.0544788 -0.708724 1.71872
lowerneck -9.63132 -5.08244 -9.3419
upperneck 22.0182 -7.17202 13.9576
head 9.34478 -2.19853 5.73756
rclavicle 2.92741e-015 3.77691e-014
rhumerus -48.5173 -22.0229 -77.6274
rradius 33.1816
rwrist 40.8911
rhand -33.7562 -14.9776
rfingers 7.12502
rthumb -6.94425 -44.8437
lclavicle 2.92741e-015 3.77691e-014
lhumerus -38.6102 1.51333 88.2887
lradius 23.6335
lwrist -35.7996
lhand -27.187 15.2436
lfingers 7.12502
lthumb -0.600702 45.2225
rfemur 178.696 53.2926 -149.16
rtibia 32.7119
rfoot -61.6767 -50.4966
rtoes -1.19271e-014
lfemur 2.73317 2.79093 -12.1541
ltibia 46.5642
lfoot 4.55902 -9.65938
ltoes -4.77083e-014
